name C:\Users\Nicos\Desktop\Gil_twoSteps\Study2\ExperimentalData\IK_Splined\twoSteps_IK_BSplines_120_meshInts_study2_p02_s_01_lowIK_modROI.mot
datacolumns 38
datarows 13
range 0.65500000 0.66590000
endheader
                time	         pelvis_tilt	         pelvis_list	     pelvis_rotation	           pelvis_tx	           pelvis_ty	           pelvis_tz	       hip_flexion_r	     hip_adduction_r	      hip_rotation_r	        knee_angle_r	       ankle_angle_r	    subtalar_angle_r	         mtp_angle_r	       hip_flexion_l	     hip_adduction_l	      hip_rotation_l	        knee_angle_l	       ankle_angle_l	    subtalar_angle_l	         mtp_angle_l	    lumbar_extension	      lumbar_bending	     lumbar_rotation	          arm_flex_r	           arm_add_r	           arm_rot_r	        elbow_flex_r	           pro_sup_r	        wrist_flex_r	         wrist_dev_r	          arm_flex_l	           arm_add_l	           arm_rot_l	        elbow_flex_l	           pro_sup_l	        wrist_flex_l	         wrist_dev_l	
          0.65500000	        -17.54969401	          3.75639185	          9.30508287	          0.30818283	          0.89318291	          0.34005676	         30.45726123	         -9.40421523	        -15.86687455	       -111.22561312	        -14.95097685	        -31.62024873	         -8.98198796	         30.88834463	          6.11030729	         -0.16714134	        -50.40902270	         22.04204661	         -8.94761038	          6.04170945	        -27.94473127	         -9.08792072	         -2.16819548	        -29.63790036	        -10.40112788	        -15.94694564	         49.23778613	         77.13347994	        -27.11896870	         30.37523388	         -2.33745941	        -11.78938934	         -7.94641676	         69.04303544	         69.48232682	          4.67648530	         19.78266257	
          0.65556335	        -17.57262328	          3.70265703	          9.46676147	          0.31108185	          0.89302906	          0.33986667	         30.83972508	         -9.45549234	        -15.93901527	       -111.50793075	        -14.73126521	        -31.59950509	         -8.94369866	         30.68560107	          6.09698823	         -0.05064646	        -50.33561816	         22.06713309	         -8.93476959	          6.13198875	        -27.90983972	         -8.92106029	         -2.19673806	        -29.97727196	        -10.31604685	        -16.07184752	         48.91986386	         77.13300619	        -27.09389790	         30.46315330	         -1.92006526	        -11.68840350	         -7.79026800	         69.33756171	         69.40311213	          4.67863176	         19.76109509	
          0.65734331	        -17.64507042	          3.53287694	          9.97759982	          0.32024155	          0.89254296	          0.33926606	         32.04815473	         -9.61750706	        -16.16695048	       -112.39993922	        -14.03706611	        -31.53396366	         -8.82272013	         30.04501419	          6.05490543	          0.31742984	        -50.10368977	         22.14639610	         -8.89419791	          6.41723448	        -27.79959664	         -8.39384946	         -2.28692097	        -31.04954767	        -10.04722553	        -16.46648646	         47.91535928	         77.13150933	        -27.01468441	         30.74094279	         -0.60127016	        -11.36932947	         -7.29690168	         70.26814448	         69.15282604	          4.68541371	         19.69295067	
          0.65863333	        -17.69684059	          3.40917077	         10.34936157	          0.32687774	          0.89219186	          0.33883043	         32.92399710	         -9.73633826	        -16.33235070	       -113.04268963	        -13.53457869	        -31.48623931	         -8.73434075	         29.58062851	          6.02267308	          0.58576618	        -49.93495677	         22.20052579	         -8.86311447	          6.62576816	        -27.71977835	         -8.00985038	         -2.35490771	        -31.82995961	         -9.84936403	        -16.76163002	         47.20426947	         77.12941455	        -26.95636609	         30.94091470	          0.35241015	        -11.13747318	         -6.93978692	         70.94848440	         68.96667553	          4.68990963	         19.64437491	
          0.65863333	        -17.69684059	          3.40917077	         10.34936157	          0.32687774	          0.89219186	          0.33883043	         32.92399710	         -9.73633826	        -16.33235070	       -113.04268963	        -13.53457869	        -31.48623931	         -8.73434075	         29.58062851	          6.02267308	          0.58576618	        -49.93495677	         22.20052579	         -8.86311447	          6.62576816	        -27.71977835	         -8.00985038	         -2.35490771	        -31.82995961	         -9.84936403	        -16.76163002	         47.20426947	         77.12941455	        -26.95636609	         30.94091470	          0.35241015	        -11.13747318	         -6.93978692	         70.94848440	         68.96667553	          4.68990963	         19.64437491	
          0.65919669	        -17.71520127	          3.35134319	         10.52056998	          0.32976275	          0.89204546	          0.33863819	         33.30670431	         -9.79638491	        -16.40576687	       -113.30185053	        -13.31877908	        -31.46410730	         -8.69169853	         29.37711709	          5.99858951	          0.71204348	        -49.85755151	         22.20501695	         -8.83984279	          6.72724835	        -27.68538253	         -7.83115287	         -2.39976821	        -32.18973922	         -9.74543395	        -16.94324748	         46.99144104	         77.12266774	        -26.92565080	         31.02042030	          0.75670039	        -11.03270449	         -6.78643297	         71.27968747	         68.85791388	          4.68945192	         19.62784829	
          0.66097665	        -17.77321351	          3.16863163	         11.06151866	          0.33887818	          0.89158291	          0.33803080	         34.51590286	         -9.98610780	        -16.63773200	       -114.12069318	        -12.63694038	        -31.39417916	         -8.55696652	         28.73410407	          5.92249525	          1.11102821	        -49.61298250	         22.21920719	         -8.76631380	          7.04788434	        -27.57670577	         -7.26654169	         -2.54150908	        -33.32649594	         -9.41705735	        -17.51708453	         46.31899009	         77.10135057	        -26.82860301	         31.27162555	          2.03409250	        -10.70167821	         -6.30189710	         72.32615397	         68.51427148	          4.68800575	         19.57563092	
          0.66226667	        -17.81497088	          3.03587670	         11.45403787	          0.34548371	          0.89124810	          0.33759042	         35.39226848	        -10.12405691	        -16.80580043	       -114.71267144	        -12.14298973	        -31.34336603	         -8.45900347	         28.26791385	          5.86662173	          1.40095633	        -49.43523988	         22.22856934	         -8.71262594	          7.28076820	        -27.49784433	         -6.85661281	         -2.64528232	        -34.15142029	         -9.17817865	        -17.93577334	         45.83758276	         77.08693128	        -26.75785848	         31.45341740	          2.95906015	        -10.46165585	         -5.95090227	         73.08671340	         68.26348762	          4.68676236	         19.53802536	
          0.66226667	        -17.81497088	          3.03587670	         11.45403787	          0.34548371	          0.89124810	          0.33759042	         35.39226848	        -10.12405691	        -16.80580043	       -114.71267144	        -12.14298973	        -31.34336603	         -8.45900347	         28.26791385	          5.86662173	          1.40095633	        -49.43523988	         22.22856934	         -8.71262594	          7.28076820	        -27.49784433	         -6.85661281	         -2.64528232	        -34.15142029	         -9.17817865	        -17.93577334	         45.83758276	         77.08693128	        -26.75785848	         31.45341740	          2.95906015	        -10.46165585	         -5.95090227	         73.08671340	         68.26348762	          4.68676236	         19.53802536	
          0.66283002	        -17.82859612	          2.97250500	         11.63299947	          0.34835492	          0.89110867	          0.33739530	         35.77506113	        -10.19150979	        -16.87843849	       -114.94749126	        -11.93063282	        -31.31903618	         -8.41113009	         28.06159748	          5.83057049	          1.53988489	        -49.34970072	         22.21782989	         -8.68277907	          7.39058200	        -27.46182146	         -6.66586132	         -2.70744013	        -34.52880237	         -9.05955820	        -18.16369222	         45.72299515	         77.09719995	        -26.72037715	         31.52849885	          3.34987732	        -10.35502481	         -5.80035701	         73.45323195	         68.12613939	          4.68307932	         19.52544147	
          0.66460998	        -17.87164631	          2.77227630	         12.19844507	          0.35742676	          0.89066813	          0.33677881	         36.98452967	        -10.40463335	        -17.10794511	       -115.68942605	        -11.25967166	        -31.24216379	         -8.25986974	         27.40972197	          5.71666329	          1.97884241	        -49.07943189	         22.18389762	         -8.58847512	          7.73754880	        -27.34800386	         -6.06316446	         -2.90383342	        -35.72117569	         -8.68476600	        -18.88382286	         45.36094506	         77.12964478	        -26.60195146	         31.76572560	          4.58470005	        -10.01811426	         -5.32469546	         74.61128094	         67.69217504	          4.67144239	         19.48568154	
          0.66590000	        -17.90284671	          2.62716158	         12.60824887	          0.36400152	          0.89034884	          0.33633201	         37.86108579	        -10.55909356	        -17.27427885	       -116.22713949	        -10.77339600	        -31.18645092	         -8.15024459	         26.93727854	          5.63410964	          2.29697463	        -48.88355593	         22.15930538	         -8.52012882	          7.98901121	        -27.26551515	         -5.62636301	         -3.04616845	        -36.58534214	         -8.41313727	        -19.40573384	         45.09855111	         77.15315900	        -26.51612305	         31.93765446	          5.47963148	         -9.77394006	         -4.97996219	         75.45057101	         67.37766160	          4.66300858	         19.45686573	
          0.66590000	        -17.90284671	          2.62716158	         12.60824887	          0.36400152	          0.89034884	          0.33633201	         37.86108579	        -10.55909356	        -17.27427885	       -116.22713949	        -10.77339600	        -31.18645092	         -8.15024459	         26.93727854	          5.63410964	          2.29697463	        -48.88355593	         22.15930538	         -8.52012882	          7.98901121	        -27.26551515	         -5.62636301	         -3.04616845	        -36.58534214	         -8.41313727	        -19.40573384	         45.09855111	         77.15315900	        -26.51612305	         31.93765446	          5.47963148	         -9.77394006	         -4.97996219	         75.45057101	         67.37766160	          4.66300858	         19.45686573	
